<?xml version="1.0" encoding="utf-8"?>
<!-- Generator: Adobe Illustrator 24.0.1, SVG Export Plug-In . SVG Version: 6.00 Build 0)  -->
<svg version="1.2" baseProfile="tiny" xmlns="http://www.w3.org/2000/svg" xmlns:xlink="http://www.w3.org/1999/xlink" x="0px"
	 y="0px" viewBox="0 0 128 96" xml:space="preserve">
<g id="Error_4xx">
</g>
<g id="Error_5xx">
</g>
<g id="Not_Found">
</g>
<g id="Empty_Folder_-_First_Use">
</g>
<g id="Empty_Folder_-_Tasks_Complete">
</g>
<g id="Not_Configured">
</g>
<g id="Not_Configured_2">
</g>
<g id="Not_Configured_v3">
</g>
<g id="Wait_for_Select">
</g>
<g id="Empty_Workflow">
	<g>
		<path fill="#3598DB" d="M74.324,17.469c-1.398,0-2.728-0.516-3.766-1.466c-1.102-1.008-1.744-2.384-1.811-3.876
			c-0.065-1.491,0.454-2.919,1.462-4.02c1.008-1.101,2.385-1.743,3.875-1.809c3.123-0.117,5.693,2.259,5.83,5.335c0,0,0,0,0.001,0
			c0.065,1.492-0.453,2.919-1.462,4.021c-1.008,1.101-2.385,1.743-3.877,1.809C74.493,17.467,74.408,17.469,74.324,17.469z
			 M74.333,7.293c-0.067,0-0.136,0.001-0.204,0.004c-1.224,0.054-2.354,0.581-3.182,1.485c-0.828,0.904-1.254,2.076-1.199,3.301
			c0.054,1.225,0.581,2.354,1.485,3.182c0.904,0.828,2.087,1.253,3.3,1.199c1.226-0.054,2.355-0.581,3.184-1.485
			c0.828-0.904,1.254-2.077,1.199-3.301C78.807,9.22,76.772,7.293,74.333,7.293z"/>
		<path fill="#3598DB" d="M81.809,85.465c-1.398,0-2.727-0.515-3.766-1.466c-1.102-1.008-1.744-2.384-1.81-3.876
			c-0.065-1.491,0.453-2.919,1.461-4.02s2.385-1.743,3.876-1.81c3.104-0.109,5.694,2.26,5.83,5.337
			c0.065,1.492-0.453,2.919-1.462,4.021c-1.008,1.101-2.384,1.743-3.876,1.809C81.978,85.463,81.894,85.465,81.809,85.465z
			 M81.818,75.289c-0.068,0-0.136,0.001-0.204,0.005c-1.225,0.054-2.354,0.581-3.183,1.484c-0.827,0.904-1.253,2.076-1.199,3.301
			s0.582,2.354,1.486,3.183s2.088,1.244,3.3,1.199c1.225-0.054,2.355-0.581,3.183-1.485c0.828-0.903,1.254-2.076,1.199-3.3l0,0
			C86.292,77.217,84.256,75.289,81.818,75.289z"/>
		<path fill="#3598DB" d="M25.987,35.811c-0.973,0-1.897-0.358-2.619-1.02c-0.766-0.701-1.213-1.658-1.259-2.696
			c-0.095-2.141,1.57-3.96,3.712-4.054c2.13-0.083,3.96,1.57,4.054,3.711c0.047,1.037-0.314,2.03-1.016,2.796
			s-1.658,1.212-2.696,1.258C26.105,35.81,26.046,35.811,25.987,35.811z M25.994,29.038c-0.043,0-0.086,0.001-0.129,0.003
			c-1.591,0.07-2.827,1.42-2.757,3.011c0.034,0.771,0.366,1.481,0.935,2.002c0.568,0.521,1.3,0.789,2.076,0.754
			c0.771-0.034,1.482-0.365,2.003-0.934s0.789-1.306,0.755-2.077c-0.001,0-0.001,0-0.001,0
			C28.808,30.25,27.527,29.038,25.994,29.038z"/>
		<path fill="#D4D4D4" d="M105.658,30.513c2.355,0.612,3.77,3.018,3.158,5.374c-0.611,2.356-3.017,3.77-5.372,3.159
			c-2.357-0.612-3.772-3.018-3.159-5.373C100.896,31.316,103.302,29.902,105.658,30.513"/>
		<path fill="#3598DB" d="M103.154,58.428c0.596,1.013,0.258,2.319-0.756,2.914c-1.013,0.596-2.318,0.258-2.915-0.757
			c-0.596-1.013-0.258-2.319,0.757-2.915C101.253,57.074,102.558,57.413,103.154,58.428"/>
		<path fill="#D4D4D4" d="M107.731,5.556c0.682,0.903,0.505,2.187-0.396,2.869c-0.902,0.683-2.186,0.505-2.869-0.396
			c-0.684-0.902-0.505-2.186,0.396-2.869C105.763,4.477,107.048,4.654,107.731,5.556"/>
		<path fill="#D4D4D4" d="M51.428,12.175c0.682,0.903,0.505,2.187-0.396,2.869c-0.902,0.683-2.186,0.505-2.869-0.396
			c-0.683-0.902-0.505-2.186,0.396-2.869C49.46,11.096,50.745,11.273,51.428,12.175"/>
		<path fill="#3598DB" d="M92.249,23.612c1.862,2.387,1.436,5.832-0.953,7.695c-2.386,1.862-5.833,1.436-7.695-0.953
			c-1.861-2.388-1.435-5.833,0.953-7.696C86.942,20.798,90.388,21.223,92.249,23.612"/>
		<path fill="#D4D4D4" d="M44.095,78.321c2.354,0.612,3.769,3.018,3.158,5.374c-0.612,2.356-3.018,3.77-5.372,3.159
			c-2.357-0.612-3.772-3.018-3.159-5.373C39.333,79.124,41.739,77.711,44.095,78.321"/>
		<path fill="#3598DB" d="M26.359,88.048c0.596,1.013,0.258,2.319-0.756,2.914c-1.014,0.596-2.318,0.258-2.915-0.756
			c-0.596-1.013-0.258-2.319,0.757-2.915C24.459,86.694,25.763,87.033,26.359,88.048"/>
		<path fill="#3598DB" d="M28.847,67.094c1.862,2.386,1.436,5.833-0.953,7.695c-2.386,1.862-5.833,1.436-7.695-0.953
			c-1.861-2.388-1.435-5.833,0.953-7.695C23.54,64.28,26.986,64.705,28.847,67.094"/>
		<g>
			<g>
				<line fill="#FFFFFF" x1="53.202" y1="44.66" x2="44.906" y2="36.364"/>
				<path fill="#424A4D" d="M53.202,45.66c-0.256,0-0.512-0.098-0.707-0.293l-8.297-8.296c-0.391-0.391-0.391-1.023,0-1.414
					s1.023-0.391,1.414,0l8.297,8.296c0.391,0.391,0.391,1.023,0,1.414C53.714,45.562,53.458,45.66,53.202,45.66z"/>
			</g>
			<g>
				<line fill="#FFFFFF" x1="73.822" y1="65.281" x2="65.525" y2="56.985"/>
				<path fill="#424A4D" d="M73.822,66.281c-0.256,0-0.512-0.098-0.707-0.293l-8.297-8.297c-0.391-0.391-0.391-1.023,0-1.414
					s1.023-0.391,1.414,0l8.297,8.297c0.391,0.391,0.391,1.023,0,1.414C74.334,66.184,74.078,66.281,73.822,66.281z"/>
			</g>
			<g>
				<line fill="#FFFFFF" x1="65.525" y1="44.66" x2="73.822" y2="36.364"/>
				<path fill="#424A4D" d="M65.525,45.66c-0.256,0-0.512-0.098-0.707-0.293c-0.391-0.391-0.391-1.023,0-1.414l8.297-8.296
					c0.391-0.391,1.023-0.391,1.414,0s0.391,1.023,0,1.414l-8.297,8.296C66.037,45.562,65.781,45.66,65.525,45.66z"/>
			</g>
			<g>
				<path fill="#424A4D" d="M50.649,51.822H38.917c-0.553,0-1-0.447-1-1s0.447-1,1-1h11.732c0.553,0,1,0.447,1,1
					S51.202,51.822,50.649,51.822z"/>
			</g>
			<g>
				<path fill="#424A4D" d="M79.812,51.822H68.079c-0.553,0-1-0.447-1-1s0.447-1,1-1h11.732c0.553,0,1,0.447,1,1
					S80.364,51.822,79.812,51.822z"/>
			</g>
			<g>
				<path fill="#424A4D" d="M59.364,43.108c-0.553,0-1-0.448-1-1V30.375c0-0.552,0.447-1,1-1s1,0.448,1,1v11.732
					C60.364,42.66,59.917,43.108,59.364,43.108z"/>
			</g>
			<g>
				<path fill="#424A4D" d="M59.364,72.27c-0.553,0-1-0.447-1-1V59.537c0-0.553,0.447-1,1-1s1,0.447,1,1V71.27
					C60.364,71.822,59.917,72.27,59.364,72.27z"/>
			</g>
			<g>
				<line fill="#FFFFFF" x1="44.906" y1="65.281" x2="53.202" y2="56.985"/>
				<path fill="#424A4D" d="M44.905,66.281c-0.256,0-0.512-0.098-0.707-0.293c-0.391-0.391-0.391-1.023,0-1.414l8.297-8.297
					c0.391-0.391,1.023-0.391,1.414,0s0.391,1.023,0,1.414l-8.297,8.297C45.417,66.184,45.161,66.281,44.905,66.281z"/>
			</g>
		</g>
	</g>
</g>
<g id="No_data_for_chart_x29_">
</g>
<g id="no_data_for_chart_2">
</g>
<g id="Waiting_for_Select_2">
</g>
<g id="No_preview">
</g>
<g id="Waiting_for_Select_3">
</g>
<g id="_x5F_labels_x5F_">
</g>
</svg>
