<?xml version="1.0" encoding="utf-8"?>
<!-- Generator: Adobe Illustrator 24.0.1, SVG Export Plug-In . SVG Version: 6.00 Build 0)  -->
<svg version="1.2" baseProfile="tiny" xmlns="http://www.w3.org/2000/svg" xmlns:xlink="http://www.w3.org/1999/xlink" x="0px"
	 y="0px" viewBox="0 0 128 96" xml:space="preserve">
<g id="Error_4xx">
	<g id="galaxy_1_">
		<path id="Path_434_1_" fill="#D4D4D4" d="M97.572,50.533c0.001,1.591-1.288,2.88-2.879,2.881c-1.591,0.001-2.88-1.288-2.881-2.879
			c-0.001-1.591,1.288-2.88,2.879-2.881c0.001,0,0.001,0,0.002,0c1.589-0.001,2.878,1.288,2.879,2.877
			C97.572,50.532,97.572,50.532,97.572,50.533"/>
		<path id="Path_435_1_" fill="#D4D4D4" d="M74.95,22.351c0,1.683-1.364,3.047-3.047,3.047s-3.047-1.364-3.047-3.047
			c0-1.683,1.364-3.047,3.047-3.047c0,0,0,0,0,0c1.682-0.001,3.046,1.363,3.047,3.045C74.95,22.35,74.95,22.351,74.95,22.351"/>
		<path id="Path_439_1_" fill="#E34243" d="M35.977,10.059c0.538,1.331-0.105,2.847-1.437,3.385
			c-1.331,0.538-2.847-0.105-3.385-1.437s0.105-2.847,1.437-3.385c0.002-0.001,0.004-0.001,0.006-0.002
			c1.331-0.538,2.847,0.105,3.385,1.437l0,0"/>
		<path id="Path_440_1_" fill="#E34243" d="M92.821,9.555c0,2.253-1.826,4.079-4.079,4.079c-2.253,0-4.079-1.826-4.079-4.079
			s1.826-4.079,4.079-4.079l0,0C90.995,5.476,92.821,7.302,92.821,9.555"/>
		<path id="Path_441_1_" fill="#D4D4D4" d="M97.965,25.626c-0.001,1.808-1.467,3.272-3.275,3.271
			c-1.808-0.001-3.272-1.467-3.271-3.275c0.001-1.806,1.465-3.27,3.271-3.271c1.808-0.001,3.274,1.465,3.275,3.273
			C97.965,25.625,97.965,25.626,97.965,25.626"/>
		<path id="Path_446_1_" fill="#E34243" d="M116.809,23.215c-0.853-2.009,0.084-4.329,2.093-5.182
			c2.009-0.853,4.329,0.084,5.182,2.093c0.853,2.009-0.084,4.329-2.094,5.182C119.982,26.162,117.662,25.225,116.809,23.215
			L116.809,23.215"/>
		<path id="Path_448_1_" fill="#D4D4D4" d="M102.784,44.734c-0.042-2.442,1.904-4.455,4.346-4.496
			c2.442-0.042,4.455,1.904,4.496,4.346c0.042,2.442-1.904,4.455-4.346,4.496c-2.441,0.042-4.454-1.903-4.496-4.344
			C102.784,44.735,102.784,44.735,102.784,44.734"/>
		<path id="Path_449_1_" fill="#D4D4D4" d="M11.678,59.19c1.563,0.332,2.56,1.868,2.228,3.431c-0.332,1.563-1.868,2.56-3.431,2.228
			c-1.563-0.332-2.56-1.868-2.228-3.431l0,0C8.579,59.855,10.115,58.857,11.678,59.19"/>
		<path id="Path_450_1_" fill="#D4D4D4" d="M53.384,16.824c1.895,0.403,3.106,2.265,2.703,4.161s-2.265,3.106-4.161,2.703
			s-3.106-2.265-2.703-4.161c0-0.001,0-0.002,0.001-0.003C49.627,17.63,51.489,16.421,53.384,16.824
			C53.384,16.824,53.384,16.824,53.384,16.824"/>
		<path id="Path_452_1_" fill="#E34243" d="M61.664,32.273c0.831,2.056-0.163,4.396-2.219,5.227s-4.396-0.163-5.227-2.219
			c-0.831-2.056,0.163-4.396,2.219-5.227c0,0,0.001,0,0.001,0C58.494,29.224,60.833,30.217,61.664,32.273
			C61.664,32.273,61.664,32.273,61.664,32.273"/>
		<path id="Path_454_1_" fill="#D4D4D4" d="M27.226,27.144c0,1.666-1.351,3.017-3.017,3.017c-1.666,0-3.017-1.351-3.017-3.017
			c0-1.666,1.351-3.017,3.017-3.017l0,0C25.875,24.126,27.226,25.477,27.226,27.144"/>
		<path id="Path_456_1_" fill="#D4D4D4" d="M71.727,41.601c-0.052-3.078,2.4-5.615,5.478-5.668c3.078-0.052,5.615,2.4,5.668,5.478
			c0.052,3.078-2.4,5.615-5.478,5.668l0,0c-3.077,0.053-5.615-2.399-5.668-5.476C71.727,41.602,71.727,41.602,71.727,41.601"/>
		<path id="Path_457_1_" fill="#D4D4D4" d="M38.075,44.855c-0.957-2.253,0.095-4.856,2.348-5.812
			c2.253-0.957,4.856,0.095,5.812,2.348c0.957,2.253-0.095,4.856-2.348,5.812l0,0C41.634,48.159,39.032,47.108,38.075,44.855"/>
		<path id="Path_458_1_" fill="#E34243" d="M118.251,62.694c-1.465-0.621-2.149-2.313-1.528-3.778
			c0.621-1.465,2.313-2.149,3.778-1.528c1.465,0.621,2.149,2.313,1.528,3.778c0,0.001-0.001,0.001-0.001,0.002
			c-0.621,1.464-2.311,2.148-3.775,1.527C118.252,62.695,118.252,62.694,118.251,62.694"/>
		<path id="Path_461_1_" fill="#D4D4D4" d="M10.404,40.557c-0.177-1.674,1.037-3.175,2.712-3.352
			c1.674-0.177,3.175,1.037,3.352,2.712c0.177,1.674-1.037,3.175-2.712,3.352c0,0-0.001,0-0.001,0
			C12.081,43.446,10.581,42.232,10.404,40.557C10.404,40.558,10.404,40.557,10.404,40.557"/>
		<path id="Path_462_1_" fill="#E34243" d="M21.913,51.753c-0.674-1.268-0.193-2.842,1.075-3.516
			c1.268-0.674,2.842-0.193,3.516,1.075c0.674,1.268,0.193,2.842-1.075,3.516c-0.002,0.001-0.004,0.002-0.005,0.003
			c-1.268,0.674-2.842,0.193-3.516-1.075l0,0"/>
		<path id="Path_463_1_" fill="#E34243" d="M6.948,29.74c-2.053-0.215-3.543-2.054-3.328-4.107c0.215-2.053,2.054-3.543,4.107-3.328
			c2.053,0.215,3.543,2.054,3.328,4.107c0,0.001,0,0.001,0,0.002c-0.215,2.052-2.053,3.541-4.105,3.326
			C6.95,29.74,6.949,29.74,6.948,29.74"/>
	</g>
	<g id="Page_ICO">
		<g>
			<path fill="#40484B" d="M49.354,73.11V60.509c0.045-1.531,1.318-2.738,2.849-2.7h15.468v7.7c0.045,1.531,1.318,2.738,2.849,2.7
				h8.125v4.375l1.897-1.137v-4.138h0.003c0-0.058-0.007-0.116-0.019-0.173c-0.006-0.029-0.017-0.056-0.025-0.083
				s-0.016-0.056-0.028-0.084c-0.015-0.034-0.033-0.068-0.053-0.1c-0.012-0.02-0.02-0.04-0.034-0.06
				c-0.035-0.05-0.076-0.097-0.12-0.14l-10.969-10.4c-0.045-0.042-0.094-0.08-0.146-0.113c-0.022-0.014-0.047-0.025-0.07-0.037
				c-0.023-0.012-0.061-0.033-0.093-0.046c-0.031-0.011-0.063-0.02-0.095-0.028c-0.027-0.008-0.053-0.018-0.082-0.024
				c-0.061-0.011-0.124-0.017-0.186-0.017H52.203c-2.552-0.063-4.674,1.949-4.748,4.5v13.63L49.354,73.11z M69.571,59.083
				l7.729,7.331h-6.779c-0.51,0.013-0.935-0.39-0.95-0.9V59.083z"/>
			<path fill="#40484B" d="M78.645,79.577v11.921c-0.045,1.531-1.318,2.738-2.849,2.7H52.203c-1.531,0.038-2.804-1.169-2.849-2.7
				V79.925l-1.899,1.023v10.55c0.074,2.551,2.196,4.563,4.748,4.5h23.591c2.551,0.062,4.673-1.949,4.748-4.5V78.441L78.645,79.577z"
				/>
		</g>
		<path fill="#E34243" d="M39.506,82.823c-0.356,0-0.701-0.19-0.882-0.525c-0.262-0.486-0.08-1.093,0.406-1.355l14.827-7.986
			l20.513,4.52l13.611-8.154c0.475-0.284,1.087-0.131,1.371,0.344c0.284,0.474,0.13,1.088-0.344,1.371l-14.293,8.564l-20.563-4.531
			l-14.173,7.635C39.828,82.785,39.666,82.823,39.506,82.823z"/>
	</g>
</g>
<g id="Error_5xx">
</g>
<g id="Not_Found">
</g>
<g id="Empty_Folder_-_First_Use">
</g>
<g id="Empty_Folder_-_Tasks_Complete">
</g>
<g id="Not_Configured">
</g>
<g id="Not_Configured_2">
</g>
<g id="Not_Configured_v3">
</g>
<g id="Wait_for_Select">
</g>
<g id="Empty_Workflow">
</g>
<g id="No_data_for_chart_x29_">
</g>
<g id="no_data_for_chart_2">
</g>
<g id="Waiting_for_Select_2">
</g>
<g id="No_preview">
</g>
<g id="Waiting_for_Select_3">
</g>
<g id="_x5F_labels_x5F_">
</g>
</svg>
