<?xml version="1.0" encoding="utf-8"?>
<!-- Generator: Adobe Illustrator 24.0.1, SVG Export Plug-In . SVG Version: 6.00 Build 0)  -->
<svg version="1.2" baseProfile="tiny" xmlns="http://www.w3.org/2000/svg" xmlns:xlink="http://www.w3.org/1999/xlink" x="0px"
	 y="0px" viewBox="0 0 128 96" xml:space="preserve">
<g id="Error_4xx">
</g>
<g id="Error_5xx">
	<g id="organika_2_" transform="translate(1283 991)">
		<path id="Path_259_1_" fill="#40484B" d="M-1235.797-956.848c0.216,0.15,0.513,0.096,0.662-0.12
			c0.001-0.001,0.002-0.003,0.003-0.004c0.126-0.186,0.108-0.435-0.044-0.6c-0.094-0.099-0.216-0.166-0.349-0.194
			c-0.751-0.651-1.349-1.46-1.75-2.37c-0.126-0.229-0.414-0.313-0.644-0.187c-0.001,0.001-0.003,0.002-0.004,0.002
			c-0.229,0.131-0.311,0.422-0.183,0.653c1.252,2.26,1.931,2.707,2.309,2.821"/>
		<path id="Path_260_1_" fill="#40484B" d="M-1230.008-952.059c-0.131-0.228-0.423-0.306-0.65-0.174
			c-0.001,0.001-0.003,0.001-0.004,0.002c-0.228,0.136-0.304,0.43-0.171,0.659c0.013,0.022,0.028,0.043,0.044,0.063
			c0.6,0.873,1.167,1.7,1.7,2.487c-3.033,0.058-6.356,0.015-9.108-1.54c-1.13-0.689-2.176-1.508-3.116-2.44
			c-1.277-1.2-2.553-2.119-3.748-3.409c-0.174-0.194-0.472-0.211-0.667-0.037c-0.002,0.002-0.004,0.003-0.005,0.005
			c-0.195,0.179-0.209,0.481-0.033,0.678l0.008,0.009c1.211,1.307,2.5,2.247,3.8,3.458c0.994,0.986,2.102,1.851,3.3,2.575
			c2.552,1.442,5.58,1.678,8.309,1.677c0.654,0,1.289-0.014,1.9-0.027c3.223,4.878,6.272,13.136,8.416,18.96l0.854-0.406
			c-2.536-6.981-5.774-15.252-10.82-22.54"/>
		<path id="Path_261_1_" fill="#40484B" d="M-1233.078-958.96l0.012,0.416c0.007,0.259,0.218,0.465,0.477,0.467
			c0.004,0.001,0.009,0.001,0.013,0c0.263-0.008,0.471-0.227,0.463-0.491c0,0,0,0,0,0l0,0l-0.011-0.415
			c-0.135-4.767-0.318-11.3-3.925-14.934c-0.168-0.201-0.468-0.228-0.669-0.059c-0.002,0.001-0.003,0.003-0.005,0.004
			c-0.201,0.173-0.225,0.476-0.054,0.679c0.016,0.02,0.034,0.038,0.054,0.055c3.34,3.368,3.518,9.678,3.646,14.284"/>
		<path id="Path_263_1_" fill="#D4D4D4" d="M-1250.613-965.87c-3.233-0.03-5.878,2.567-5.908,5.8c-0.03,3.233,2.567,5.878,5.8,5.908
			c3.233,0.03,5.878-2.567,5.908-5.8c0-0.018,0-0.036,0-0.054l0,0C-1244.803-963.232-1247.397-965.85-1250.613-965.87
			 M-1250.613-953.201c-3.764,0.032-6.841-2.993-6.873-6.757c-0.032-3.764,2.993-6.841,6.757-6.873s6.841,2.993,6.873,6.757
			c0,0.019,0,0.038,0,0.058C-1243.84-956.268-1246.865-953.217-1250.613-953.201
			C-1250.613-953.201-1250.613-953.201-1250.613-953.201"/>
		<path id="Path_264_1_" fill="#D4D4D4" d="M-1239.674-965.459c-1.451-0.012-2.638,1.155-2.65,2.606
			c-0.012,1.451,1.155,2.638,2.606,2.65c1.451,0.012,2.638-1.155,2.65-2.606c0-0.008,0-0.015,0-0.023
			C-1237.063-964.277-1238.229-965.453-1239.674-965.459 M-1239.674-959.242c-1.983,0.018-3.604-1.575-3.622-3.558
			c-0.018-1.983,1.575-3.604,3.558-3.622c1.983-0.018,3.604,1.575,3.622,3.558c0,0.011,0,0.021,0,0.032l0,0
			C-1236.11-960.859-1237.702-959.254-1239.674-959.242"/>
		<path id="Path_265_1_" fill="#D4D4D4" d="M-1238.265-980.721c-1.817-0.005-3.294,1.463-3.3,3.28s1.463,3.294,3.28,3.3
			c1.817,0.005,3.294-1.463,3.3-3.28c0.004-1.379-0.852-2.614-2.144-3.094C-1237.493-980.651-1237.877-980.721-1238.265-980.721
			 M-1238.258-973.149c-2.342,0.008-4.246-1.884-4.255-4.226s1.884-4.246,4.225-4.254s4.246,1.884,4.255,4.226
			c0.006,1.658-0.956,3.168-2.462,3.863C-1237.047-973.283-1237.649-973.15-1238.258-973.149"/>
		<path id="Path_266_1_" fill="#40484B" d="M-1230.796-938.086c-0.25-0.085-0.521,0.049-0.606,0.299c0,0,0,0.001,0,0.001
			c-0.076,0.225,0.023,0.473,0.234,0.583c0.899,0.39,1.771,0.838,2.611,1.341c-5.103,2.362-10.67,3.551-16.293,3.482h-0.006
			c-0.266,0.023-0.463,0.257-0.44,0.523c0.02,0.232,0.203,0.417,0.435,0.439h0.554c3.095,0.011,6.18-0.372,9.178-1.142
			c-1.112,1.184-2.15,2.147-3.309,3.221c-0.654,0.606-1.215,1.142-1.954,1.855c-0.205,0.169-0.235,0.471-0.069,0.678
			c0.164,0.205,0.463,0.238,0.668,0.075c0.001-0.001,0.003-0.002,0.004-0.004c0.02-0.017,0.039-0.035,0.056-0.055
			c0.735-0.709,1.291-1.24,1.941-1.842c1.523-1.364,2.968-2.813,4.328-4.339c0.02-0.022,0.037-0.047,0.052-0.073
			c1.992-0.615,3.945-1.352,5.847-2.207c0.76,0.494,5.151,5.7,5.852,6.239l1.041-0.329c-5.871-6.833-7.611-7.612-10.121-8.75"/>
		<path id="Path_267_1_" fill="#40484B" d="M-1246.309-946.9c1.526,0.614,6.524,3.351,8.218,4.368
			c0.234,0.119,0.52,0.025,0.638-0.209c0.001-0.002,0.002-0.003,0.003-0.005c0.107-0.215,0.041-0.475-0.155-0.613
			c-1.491-0.894-6.686-3.761-8.352-4.433c-0.251-0.079-0.519,0.062-0.598,0.313c-0.001,0.003-0.002,0.005-0.002,0.008
			c-0.069,0.224,0.034,0.466,0.243,0.572"/>
		<path id="Path_268_1_" fill="#40484B" d="M-1238.263-940.112c0.262-0.016,0.463-0.238,0.452-0.5
			c-0.019-0.261-0.238-0.461-0.5-0.457c-4.966,0.134-9.927-0.431-14.736-1.678c-1.011-0.189-1.966-0.608-2.789-1.225
			c-0.184-0.187-0.485-0.189-0.672-0.004c-0.001,0.001-0.003,0.003-0.004,0.004c-0.187,0.189-0.187,0.493,0,0.682
			c0.014,0.014,0.028,0.027,0.044,0.039c0.933,0.721,2.022,1.211,3.18,1.432c4.38,1.121,8.879,1.707,13.4,1.744
			c0.584,0,1.128-0.013,1.624-0.037"/>
		<path id="Path_269_1_" fill="#D4D4D4" d="M-1233.872-945.107c-2.201-0.018-4.001,1.752-4.019,3.953
			c-0.018,2.201,1.752,4.001,3.953,4.019c2.201,0.018,4.001-1.752,4.019-3.953c0-0.011,0-0.022,0-0.033l0,0
			C-1229.913-943.312-1231.681-945.095-1233.872-945.107 M-1233.872-936.174c-2.733,0.024-4.967-2.172-4.991-4.905
			c-0.024-2.733,2.172-4.967,4.905-4.991c2.733-0.024,4.967,2.172,4.991,4.905c0,0.014,0,0.029,0,0.043l0,0
			C-1228.958-938.402-1231.152-936.188-1233.872-936.174"/>
		<path id="Path_270_1_" fill="#D4D4D4" d="M-1249.39-950.95c-1.451-0.013-2.638,1.154-2.651,2.605s1.154,2.638,2.605,2.651
			c1.451,0.013,2.638-1.154,2.651-2.605c0-0.008,0-0.016,0-0.024C-1246.779-949.768-1247.945-950.944-1249.39-950.95
			C-1249.39-950.95-1249.39-950.95-1249.39-950.95 M-1249.39-944.733c-1.983,0.018-3.604-1.575-3.622-3.558
			c-0.018-1.983,1.575-3.604,3.558-3.622c1.983-0.018,3.604,1.575,3.622,3.558c0,0.011,0,0.021,0,0.032l0,0
			C-1245.826-946.35-1247.417-944.744-1249.39-944.733"/>
		<path id="Path_271_1_" fill="#D4D4D4" d="M-1242.372-927.418c-1.451-0.015-2.64,1.149-2.656,2.6
			c-0.016,1.451,1.149,2.64,2.6,2.656s2.64-1.149,2.656-2.6c0-0.01,0-0.019,0-0.029l0,0
			C-1239.767-926.234-1240.93-927.409-1242.372-927.418 M-1242.372-921.202c-1.983,0.017-3.604-1.576-3.621-3.559
			c-0.017-1.983,1.576-3.604,3.559-3.621c1.983-0.017,3.604,1.576,3.621,3.559c0,0.01,0,0.021,0,0.031
			C-1238.805-922.818-1240.398-921.211-1242.372-921.202"/>
		<path id="Path_272_1_" fill="#D4D4D4" d="M-1259.135-947.746c-1.451-0.016-2.64,1.148-2.656,2.6
			c-0.015,1.451,1.149,2.64,2.6,2.656c1.451,0.015,2.64-1.149,2.656-2.6c0-0.01,0-0.019,0-0.029l0,0
			C-1256.53-946.561-1257.693-947.736-1259.135-947.746 M-1259.135-941.53c-1.982,0.017-3.602-1.577-3.619-3.559
			c-0.016-1.982,1.577-3.602,3.559-3.619c1.982-0.017,3.602,1.577,3.619,3.559c0,0.01,0,0.02,0,0.03
			c0.009,1.973-1.584,3.58-3.557,3.589C-1259.134-941.53-1259.135-941.53-1259.135-941.53"/>
		<path id="Path_273_1_" fill="#D4D4D4" d="M-1191.469-949.185h-0.007l-1.557,0.024c-3.632,0.133-7.269,0.019-10.886-0.342
			c-0.265-0.021-0.497,0.176-0.518,0.441c-0.021,0.261,0.171,0.49,0.431,0.517c2.482,0.255,4.976,0.384,7.471,0.387
			c1.052,0,2.168-0.019,3.518-0.041l1.555-0.025c0.265-0.023,0.462-0.256,0.439-0.522
			C-1191.044-948.982-1191.233-949.168-1191.469-949.185"/>
		<path id="Path_274_1_" fill="#40484B" d="M-1209.871-947.486c-0.224-0.133-0.514-0.058-0.646,0.166
			c0,0.001-0.001,0.002-0.002,0.003l0,0c-2.131,3.748-4.038,7.62-5.709,11.594c-0.172,0.4-2.247,5.894-2.246,6.13h0.7l-0.168,0.474
			c0.242-0.521,2.372-5.723,2.588-6.224c1.657-3.94,3.547-7.778,5.659-11.494c0.131-0.227,0.055-0.518-0.171-0.652l0,0"/>
		<path id="Path_275_1_" fill="#40484B" d="M-1187.339-954.123c-0.038-0.261-0.28-0.443-0.541-0.406
			c-4.336,0.689-8.776,0.218-12.871-1.364c1.719-1.489,3.6-2.781,5.607-3.852c0.242-0.106,0.1-0.275,0-0.52
			c-0.1-0.245-0.137-0.471-0.379-0.365c-0.024,0.01-0.047,0.022-0.069,0.037c-4.212,2.271-7.667,5.259-9.245,7.988
			c-0.149,0.22-0.093,0.518,0.125,0.67c0.217,0.149,0.513,0.094,0.662-0.122c0.001-0.001,0.001-0.002,0.002-0.003
			c0.013-0.02,0.025-0.04,0.035-0.061c0.685-1.126,1.52-2.153,2.482-3.053c0.007,0.003,0.014,0.007,0.02,0.011
			c2.999,1.272,6.222,1.933,9.48,1.942c1.435-0.024,2.867-0.143,4.286-0.357c0.26-0.042,0.438-0.284,0.4-0.545"/>
		<path id="Path_276_1_" fill="#40484B" d="M-1205.329-958.709c-0.211-0.159-0.317-0.35-0.475-0.138
			c-0.903,1.507-1.343,3.245-1.265,5c0.017,0.263,0.244,0.463,0.508,0.446c0.24-0.016,0.431-0.206,0.446-0.446
			c-0.092-1.549,0.282-3.09,1.073-4.425c0.156-0.212-0.077-0.278-0.287-0.439"/>
		<path id="Path_277_1_" fill="#D4D4D4" d="M-1188.896-950.61c-1.138-0.01-2.069,0.905-2.079,2.043
			c-0.01,1.138,0.905,2.069,2.043,2.079s2.069-0.905,2.079-2.043c0-0.005,0-0.009,0-0.014l0,0c0.002-1.132-0.911-2.052-2.043-2.06
			 M-1188.896-945.523c-1.669,0.012-3.032-1.331-3.044-3c-0.012-1.669,1.331-3.032,3-3.044c1.669-0.012,3.032,1.331,3.044,3
			c0,0.007,0,0.015,0,0.022c0.007,1.662-1.334,3.015-2.996,3.022C-1188.894-945.523-1188.895-945.523-1188.896-945.523"/>
		<path id="Path_278_1_" fill="#D4D4D4" d="M-1203.87-961.318c-0.847-0.009-1.541,0.671-1.55,1.518
			c-0.009,0.847,0.671,1.541,1.518,1.55s1.541-0.671,1.55-1.518c0-0.005,0-0.01,0-0.015c0.004-0.844-0.677-1.531-1.521-1.535
			c0,0,0,0,0,0 M-1203.873-957.289c-1.378,0.012-2.504-1.096-2.516-2.474c-0.012-1.378,1.096-2.504,2.474-2.516
			c1.378-0.012,2.504,1.096,2.516,2.474c0,0.007,0,0.014,0,0.021l0,0C-1201.395-958.412-1202.502-957.296-1203.873-957.289"/>
		<path id="Path_279_1_" fill="#D4D4D4" d="M-1183.457-959.122c-2.096-0.018-3.809,1.667-3.827,3.763
			c-0.018,2.096,1.667,3.809,3.763,3.827c2.096,0.018,3.809-1.667,3.827-3.763c0-0.011,0-0.021,0-0.032l0,0
			C-1179.688-957.413-1181.371-959.111-1183.457-959.122 M-1183.457-950.57c-2.627,0.02-4.773-2.093-4.794-4.72
			s2.093-4.773,4.72-4.794c2.627-0.02,4.773,2.093,4.794,4.72c0,0.013,0,0.025,0,0.038l0,0c0.008,2.614-2.102,4.742-4.716,4.757"/>
		<path id="Path_280_1_" fill="#D4D4D4" d="M-1192.231-965.278c-1.765-0.015-3.207,1.403-3.222,3.168s1.403,3.207,3.168,3.222
			c1.765,0.015,3.207-1.403,3.222-3.168c0-0.009,0-0.018,0-0.027l0,0C-1189.058-963.839-1190.475-965.269-1192.231-965.278
			 M-1192.231-957.926c-2.295,0.019-4.171-1.827-4.19-4.122c-0.019-2.295,1.827-4.171,4.122-4.19
			c2.295-0.019,4.171,1.827,4.19,4.122c0,0.011,0,0.023,0,0.034l0,0C-1188.102-959.797-1189.946-957.938-1192.231-957.926"/>
		<path id="Path_281_1_" fill="#D4D4D4" d="M-1207.668-953.247c-1.765-0.015-3.207,1.403-3.222,3.168
			c-0.015,1.764,1.403,3.207,3.168,3.222c1.765,0.015,3.207-1.403,3.222-3.168c0-0.009,0-0.018,0-0.027l0,0
			C-1204.494-951.809-1205.912-953.238-1207.668-953.247 M-1207.668-945.896c-2.295,0.019-4.172-1.826-4.191-4.121
			c-0.019-2.295,1.826-4.172,4.121-4.191c2.295-0.019,4.172,1.826,4.191,4.121c0,0.012,0,0.023,0,0.035l0,0
			C-1203.539-947.767-1205.383-945.907-1207.668-945.896"/>
		<path id="Path_282_1_" fill="#40484B" d="M-1184.812-933.302c-4.756,0.361-6.617,0.273-10.65-1.042
			c-0.243-0.101-0.522,0.014-0.624,0.257c0,0.001-0.001,0.002-0.001,0.004c-0.101,0.245,0.014,0.526,0.258,0.63
			c0.024,0.01,0.048,0.018,0.073,0.023c4.157,1.356,6.188,1.452,11.019,1.086h0.014c0.262-0.045,0.438-0.294,0.393-0.557
			c-0.04-0.233-0.243-0.402-0.479-0.4"/>
		<path id="Path_283_1_" fill="#40484B" d="M-1193.857-927.877c-1.318-0.809-2.364-1.995-3-3.405
			c-0.099-0.243-0.377-0.36-0.62-0.261c-0.001,0.001-0.003,0.001-0.005,0.002c-0.22,0.093-0.338,0.334-0.278,0.565
			c0.713,1.6,1.884,2.953,3.364,3.89c0.203,0.167,0.503,0.138,0.67-0.064c0.001-0.001,0.002-0.002,0.003-0.004
			c0.167-0.207,0.136-0.509-0.068-0.679c-0.019-0.016-0.04-0.031-0.062-0.043"/>
		<path id="Path_284_1_" fill="#40484B" d="M-1202.946-935.271c-1.55-0.543-3.172-0.857-4.813-0.931
			c5.847-3.8,11.722-4.881,19.485-5.972c0.26-0.057,0.425-0.314,0.368-0.574c-0.051-0.231-0.262-0.391-0.499-0.378
			c-6.837,0.961-12.239,1.92-17.454,4.691c1.605-1.817,3.507-3.349,5.625-4.529c0.222-0.147,0.284-0.444,0.139-0.667
			c-0.128-0.2-0.384-0.275-0.6-0.176c-2.939,1.611-5.459,3.889-7.358,6.651c-1.233,0.791-2.415,1.656-3.541,2.593l-0.5,0.414
			c-0.188,0.157-4.723,4.767-4.911,4.923l1.2,0.274l4.815-4.868c0.6-0.5,1.191-0.955,1.784-1.386l0.042-0.017
			c0.544-0.221,6.915,0.953,6.72,0.848"/>
		<path id="Path_285_1_" fill="#D4D4D4" d="M-1198.968-946.49c-0.847-0.007-1.54,0.674-1.547,1.521
			c-0.007,0.847,0.674,1.54,1.521,1.547c0.847,0.007,1.54-0.674,1.547-1.521c0-0.004,0-0.008,0-0.012
			c0.004-0.843-0.676-1.531-1.519-1.535C-1198.967-946.49-1198.968-946.49-1198.968-946.49 M-1198.968-942.461
			c-1.381,0.014-2.511-1.093-2.526-2.474c-0.014-1.381,1.093-2.511,2.474-2.526c1.381-0.014,2.511,1.093,2.526,2.474
			c0,0.009,0,0.017,0,0.026l0,0C-1196.487-943.587-1197.594-942.468-1198.968-942.461"/>
		<path id="Path_286_1_" fill="#D4D4D4" d="M-1196.17-932.868 M-1199.17-938.144c-1.746-0.002-3.163,1.412-3.165,3.157
			c0,0.203,0.019,0.405,0.058,0.605c0.336,1.709,1.994,2.823,3.703,2.487s2.823-1.994,2.487-3.703
			C-1196.377-937.073-1197.667-938.138-1199.17-938.144 M-1199.18-930.794c-2.287,0.009-4.148-1.838-4.157-4.125
			c-0.009-2.287,1.838-4.148,4.125-4.157c2.287-0.009,4.148,1.838,4.157,4.125c0.003,0.841-0.25,1.663-0.725,2.357
			C-1196.542-931.464-1197.818-930.789-1199.18-930.794"/>
		<path id="Path_287_1_" fill="#D4D4D4" d="M-1184.936-944.342c-1.764-0.015-3.206,1.403-3.221,3.167s1.403,3.206,3.167,3.221
			s3.206-1.403,3.221-3.167c0-0.009,0-0.018,0-0.027l0,0C-1181.764-942.904-1183.181-944.333-1184.936-944.342 M-1184.936-936.991
			c-2.295,0.019-4.172-1.826-4.191-4.121c-0.019-2.295,1.826-4.172,4.121-4.191c2.295-0.019,4.172,1.826,4.191,4.121
			c0,0.012,0,0.023,0,0.035l0,0C-1180.808-938.862-1182.652-937.003-1184.936-936.991"/>
		<path id="Path_288_1_" fill="#D4D4D4" d="M-1190.619-929.221c-1.764,0.016-3.181,1.458-3.165,3.222s1.458,3.181,3.222,3.165
			s3.181-1.458,3.165-3.222c0-0.009,0-0.018,0-0.026C-1187.421-927.838-1188.863-929.243-1190.619-929.221 M-1190.494-921.872
			c-2.295,0.058-4.202-1.755-4.26-4.049s1.755-4.202,4.049-4.26s4.202,1.755,4.26,4.049c0,0.011,0,0.022,0.001,0.033
			c0.051,2.284-1.759,4.176-4.043,4.227C-1190.49-921.872-1190.492-921.872-1190.494-921.872"/>
		<path id="Path_289_1_" fill="#40484B" d="M-1218.968-942.625c-0.242,0.096-0.362,0.37-0.268,0.613l0,0
			c0.985,2.618,0.7,10.4,0.795,13.2h0.594l0.192-0.417c0.044-0.1,0.089-0.2,0.133-0.294c-0.174-2.674,0.1-10.324-0.84-12.829
			c-0.091-0.242-0.36-0.365-0.602-0.274C-1218.966-942.626-1218.967-942.625-1218.968-942.625"/>
		<path id="Path_290_1_" fill="#40484B" d="M-1215.138-982.27c-0.237,0.118-0.335,0.405-0.22,0.643
			c1.99,4.133,1.944,11.409,1.285,15.026c-0.047,0.26,0.125,0.51,0.385,0.559c0.029,0.006,0.058,0.009,0.087,0.009
			c0.23-0.002,0.427-0.167,0.468-0.394c0.68-3.74,0.717-11.29-1.366-15.618c-0.112-0.238-0.396-0.339-0.634-0.227
			C-1215.134-982.271-1215.136-982.271-1215.138-982.27L-1215.138-982.27"/>
		<path id="Path_291_1_" fill="#40484B" d="M-1215.294-954.174c-0.26-0.038-0.501,0.141-0.541,0.4
			c-0.076,0.655-0.267,1.291-0.564,1.879c-0.112,0.254-0.247,0.555-0.41,0.956c-0.084,0.251,0.05,0.523,0.3,0.61
			c0.227,0.076,0.475-0.029,0.579-0.244c0.159-0.389,0.29-0.682,0.4-0.929c0.331-0.668,0.545-1.388,0.635-2.128
			c0.04-0.261-0.139-0.505-0.4-0.547"/>
		<path id="Path_292_1_" fill="#40484B" d="M-1217.091-973.739c-0.105-0.241-0.386-0.351-0.627-0.246
			c-0.001,0.001-0.003,0.001-0.004,0.002c-0.211,0.095-0.325,0.327-0.27,0.552c0.873,2.605-1.32,5.543-3.082,7.9
			c-0.24,0.321-0.471,0.632-0.689,0.933c-0.53-1.734-1.489-3.306-2.789-4.57c-1.222-1.4-2.415-2.922-2.42-4.665
			c0-0.263-0.213-0.477-0.476-0.479l0,0c-0.264,0.002-0.477,0.216-0.476,0.48c0.006,2.077,1.376,3.823,2.657,5.3
			c1.224,1.406,3.151,3.826,2.817,4.936s-2.03,3.384-2.437,5.58c-0.632-1.364-1.3-2.758-2.02-4.158
			c-0.136-0.224-0.429-0.295-0.653-0.159c-0.001,0.001-0.003,0.002-0.004,0.003c-0.203,0.126-0.283,0.381-0.189,0.6
			c1.96,3.839,3.6,7.649,4.947,10.87c0.112,0.238,0.396,0.341,0.635,0.229c0.001-0.001,0.002-0.001,0.003-0.002
			c0.223-0.108,0.327-0.367,0.243-0.6c-0.653-1.561-1.376-3.26-2.169-5.033c-0.022-2.716,1.437-5.268,2.542-6.954
			c0.346-0.528,0.782-1.111,1.241-1.726c1.9-2.541,4.257-5.7,3.222-8.792"/>
		<path id="Path_293_1_" fill="#40484B" d="M-1209.251-964.055c0.685-1.082,1.441-2.117,2.262-3.1
			c0.824-0.99,1.587-2.031,2.282-3.116c1.412-2.537,2.087-5.419,1.951-8.319c0.003-0.264-0.207-0.481-0.471-0.486h-0.005
			c-0.262,0.002-0.474,0.215-0.476,0.477c0.133,2.725-0.494,5.432-1.809,7.822c-0.675,1.051-1.415,2.059-2.214,3.019
			c-0.848,1.014-1.628,2.083-2.335,3.2c-0.135,0.226-0.064,0.519,0.159,0.659c0.074,0.046,0.16,0.07,0.247,0.07
			c0.167,0,0.322-0.088,0.408-0.231"/>
		<path id="Path_294_1_" fill="#40484B" d="M-1198.484-968.565c-0.248-0.078-0.513,0.06-0.591,0.308
			c0,0.001-0.001,0.003-0.001,0.004v0.009c-0.814,2.708-7,4.253-9.975,4.443c-0.264,0.031-0.454,0.27-0.423,0.535
			c0.027,0.233,0.218,0.412,0.452,0.425h0.031c2.967-0.19,9.812-1.744,10.827-5.123c0.078-0.253-0.063-0.521-0.316-0.6l0,0"/>
		<path id="Path_295_1_" fill="#D4D4D4" d="M-1214.683-965.87c-3.233-0.03-5.878,2.567-5.908,5.8c-0.03,3.233,2.567,5.878,5.8,5.908
			c3.233,0.03,5.878-2.567,5.908-5.8c0-0.018,0-0.035,0-0.053l0,0c0.01-3.216-2.584-5.834-5.8-5.853 M-1214.683-953.199
			c-3.764,0.032-6.841-2.993-6.873-6.757c-0.032-3.764,2.993-6.841,6.757-6.873s6.841,2.993,6.873,6.757c0,0.019,0,0.039,0,0.058
			l0,0C-1207.914-956.268-1210.937-953.219-1214.683-953.199"/>
		<path id="Path_296_1_" fill="#D4D4D4" d="M-1219.488-951.251c-2.305-0.019-4.188,1.833-4.208,4.138
			c-0.019,2.305,1.833,4.189,4.138,4.208c2.305,0.019,4.188-1.833,4.208-4.138c0-0.011,0-0.023,0-0.034
			c0.01-2.295-1.841-4.163-4.136-4.174C-1219.487-951.251-1219.488-951.251-1219.488-951.251 M-1219.488-941.943
			c-2.836,0.024-5.154-2.256-5.178-5.092c-0.024-2.836,2.256-5.154,5.092-5.178c2.836-0.024,5.154,2.256,5.178,5.092
			c0,0.014,0,0.029,0,0.043c0.012,2.824-2.267,5.123-5.091,5.135C-1219.488-941.943-1219.488-941.943-1219.488-941.943"/>
		<path id="Path_297_1_" fill="#D4D4D4" d="M-1219.095-978.243c-1.138-0.01-2.069,0.904-2.08,2.042
			c-0.01,1.138,0.904,2.069,2.042,2.08c1.138,0.01,2.069-0.904,2.08-2.042c0-0.006,0-0.012,0-0.018l0,0
			c0.004-1.133-0.91-2.054-2.043-2.06 M-1219.096-973.158c-1.669,0.012-3.032-1.331-3.044-3c-0.012-1.669,1.331-3.032,3-3.044
			s3.032,1.331,3.044,3c0,0.007,0,0.014,0,0.021c0.007,1.662-1.335,3.016-2.997,3.023
			C-1219.094-973.158-1219.095-973.158-1219.096-973.158"/>
		<path id="Path_298_1_" fill="#D4D4D4" d="M-1215.671-989.041c-1.764-0.015-3.206,1.403-3.221,3.167
			c-0.015,1.764,1.403,3.206,3.167,3.221c1.764,0.015,3.206-1.403,3.221-3.167c0-0.009,0-0.017,0-0.026
			C-1212.496-987.603-1213.914-989.033-1215.671-989.041C-1215.671-989.041-1215.671-989.041-1215.671-989.041 M-1215.671-981.689
			c-2.295,0.02-4.172-1.825-4.192-4.12s1.825-4.172,4.12-4.192c2.295-0.02,4.172,1.825,4.192,4.12c0,0.012,0,0.023,0,0.035l0,0
			C-1211.545-983.562-1213.387-981.703-1215.671-981.689"/>
		<path id="Path_299_1_" fill="#D4D4D4" d="M-1203.322-985.911c-1.818-0.005-3.295,1.464-3.3,3.282s1.464,3.295,3.282,3.3
			c1.818,0.005,3.295-1.464,3.3-3.282c0.004-1.379-0.852-2.614-2.145-3.094C-1202.549-985.841-1202.934-985.911-1203.322-985.911
			 M-1203.322-978.337c-2.344,0.008-4.252-1.886-4.26-4.23c-0.008-2.344,1.886-4.252,4.23-4.26s4.252,1.886,4.26,4.23
			c0.006,1.659-0.956,3.17-2.461,3.867C-1202.107-978.472-1202.711-978.338-1203.322-978.337"/>
		<path id="Path_300_1_" fill="#D4D4D4" d="M-1196.566-974.902c-1.817-0.005-3.294,1.463-3.3,3.28
			c-0.005,1.817,1.463,3.294,3.28,3.3s3.294-1.463,3.3-3.28c0.004-1.379-0.852-2.614-2.144-3.094
			C-1195.793-974.832-1196.178-974.902-1196.566-974.902 M-1196.558-967.33c-2.344,0.006-4.249-1.889-4.255-4.233
			s1.889-4.249,4.233-4.255c2.344-0.006,4.249,1.889,4.255,4.233c0.004,1.661-0.961,3.171-2.469,3.866
			c-0.553,0.255-1.154,0.388-1.763,0.391"/>
		<path id="Path_301_1_" fill="#D4D4D4" d="M-1228.438-965.311c-0.847-0.007-1.54,0.674-1.547,1.521
			c-0.007,0.847,0.674,1.54,1.521,1.547s1.54-0.674,1.547-1.521c0-0.004,0-0.008,0-0.012c0.004-0.843-0.676-1.531-1.519-1.535
			C-1228.437-965.311-1228.438-965.311-1228.438-965.311 M-1228.438-961.282c-1.381,0.014-2.511-1.093-2.526-2.474
			s1.093-2.512,2.474-2.526s2.511,1.093,2.526,2.474c0,0.009,0,0.017,0,0.026l0,0c0.004,1.371-1.103,2.487-2.474,2.495"/>
		<path id="Path_345_1_" fill="#D4D4D4" d="M-1224.718-975.209c1.732-1.753,1.732-4.572,0-6.325
			c-1.711-1.732-4.502-1.749-6.234-0.038c-0.013,0.013-0.026,0.025-0.038,0.038c-1.732,1.753-1.732,4.572,0,6.325
			c1.711,1.732,4.502,1.749,6.234,0.038C-1224.744-975.183-1224.731-975.196-1224.718-975.209"/>
		<path id="Path_346_1_" fill="#D4D4D4" d="M-1176.832-928.312c2.115-2.142,2.115-5.587,0-7.729c-2.09-2.116-5.5-2.137-7.617-0.047
			c-0.016,0.016-0.031,0.031-0.047,0.047c-2.115,2.142-2.115,5.586,0,7.728l0,0c2.091,2.116,5.502,2.136,7.618,0.045
			C-1176.863-928.283-1176.848-928.298-1176.832-928.312"/>
		<path id="Path_348_1_" fill="#D4D4D4" d="M-1245.818-928.624c2.172-2.198,2.172-5.735,0-7.933
			c-2.146-2.172-5.647-2.194-7.819-0.048c-0.016,0.016-0.032,0.032-0.048,0.048c-2.172,2.198-2.172,5.735,0,7.933l0,0
			c2.146,2.172,5.647,2.193,7.819,0.047C-1245.85-928.593-1245.835-928.608-1245.818-928.624L-1245.818-928.624"/>
		<path id="Path_350_1_" fill="#D4D4D4" d="M-1229.997-952.367c1.582-1.601,1.582-4.176,0-5.777
			c-1.563-1.582-4.112-1.597-5.694-0.034c-0.011,0.011-0.023,0.023-0.034,0.034c-1.582,1.601-1.582,4.176,0,5.777
			c1.563,1.582,4.112,1.597,5.693,0.034C-1230.02-952.344-1230.009-952.355-1229.997-952.367"/>
	</g>
	<g id="Server_ICO_1_" transform="translate(1021 265)">
		<g id="Rectangle_4349_1_" transform="translate(292 786)">
			<path fill="none" d="M-1260.694-990h25c1.104,0,2,0.895,2,2v5c0,1.105-0.896,2-2,2h-25c-1.105,0-2-0.895-2-2v-5
				C-1262.694-989.105-1261.799-990-1260.694-990z"/>
			<path fill="#40484B" d="M-1235.694-981h-25c-1.103,0-2-0.897-2-2v-5c0-1.103,0.897-2,2-2h25c1.103,0,2,0.897,2,2v5
				C-1233.694-981.897-1234.592-981-1235.694-981z M-1260.694-988L-1260.694-988v5h25v-5H-1260.694z"/>
		</g>
		<g id="Rectangle_4351_1_" transform="translate(292 808)">
			<path fill="none" d="M-1260.694-990h25c1.104,0,2,0.895,2,2v5c0,1.105-0.896,2-2,2h-25c-1.105,0-2-0.895-2-2v-5
				C-1262.694-989.105-1261.799-990-1260.694-990z"/>
			<path fill="#40484B" d="M-1235.694-981h-25c-1.103,0-2-0.897-2-2v-5c0-1.103,0.897-2,2-2h25c1.103,0,2,0.897,2,2v5
				C-1233.694-981.897-1234.592-981-1235.694-981z M-1260.694-988L-1260.694-988v5h25v-5H-1260.694z"/>
		</g>
		<rect id="Rectangle_4352_1_" x="-956.694" y="-196" fill="#40484B" width="2" height="4"/>
		<rect id="Rectangle_4353_1_" x="-956.694" y="-185" fill="#40484B" width="2" height="4"/>
		<g id="Rectangle_4350_1_" transform="translate(292 797)">
			<path fill="none" d="M-1260.694-990h25c1.104,0,2,0.895,2,2v5c0,1.105-0.896,2-2,2h-25c-1.105,0-2-0.895-2-2v-5
				C-1262.694-989.105-1261.799-990-1260.694-990z"/>
			<path fill="#E34243" d="M-1235.694-981h-25c-1.103,0-2-0.897-2-2v-5c0-1.103,0.897-2,2-2h25c1.103,0,2,0.897,2,2v5
				C-1233.694-981.897-1234.592-981-1235.694-981z M-1260.694-988L-1260.694-988v5h25v-5H-1260.694z"/>
		</g>
		<rect id="Rectangle_4354_1_" x="-956.694" y="-174" fill="#40484B" width="2" height="4"/>
		<path id="Rectangle_4355_1_" fill="#40484B" d="M-939.694-170L-939.694-170c0,0.552-0.448,1-1,1h-31c-0.552,0-1-0.448-1-1l0,0
			c0-0.552,0.448-1,1-1h31C-940.142-171-939.694-170.552-939.694-170z"/>
		<rect id="Rectangle_4356_1_" x="-967.194" y="-200.5" fill="#40484B" width="2" height="2"/>
		<rect id="Rectangle_4357_1_" x="-967.194" y="-189.5" fill="#E34243" width="2" height="2"/>
		<rect id="Rectangle_4358_1_" x="-967.194" y="-178.5" fill="#40484B" width="2" height="2"/>
	</g>
</g>
<g id="Not_Found">
</g>
<g id="Empty_Folder_-_First_Use">
</g>
<g id="Empty_Folder_-_Tasks_Complete">
</g>
<g id="Not_Configured">
</g>
<g id="Not_Configured_2">
</g>
<g id="Not_Configured_v3">
</g>
<g id="Wait_for_Select">
</g>
<g id="Empty_Workflow">
</g>
<g id="No_data_for_chart_x29_">
</g>
<g id="no_data_for_chart_2">
</g>
<g id="Waiting_for_Select_2">
</g>
<g id="No_preview">
</g>
<g id="Waiting_for_Select_3">
</g>
<g id="_x5F_labels_x5F_">
</g>
</svg>
