<svg xmlns="http://www.w3.org/2000/svg" viewBox="0 0 128 96"><path d="M56.651,79.771a.48.48,0,0,1-.112-.012l-.789-.181c-5.662-1.29-9.4-2.141-15.529-9.36-6.263-7.377-6.957-13.656-7.571-23.288a73.7,73.7,0,0,1-.081-8.7.475.475,0,0,1,.522-.477.5.5,0,0,1,.476.521,73.135,73.135,0,0,0,.081,8.592c.619,9.712,1.264,15.556,7.334,22.706,5.912,6.964,9.329,7.742,14.99,9.033l.792.18a.5.5,0,0,1-.113.987Z" style="fill:#40484b"/><path d="M54.86,79.352a.535.535,0,0,1-.1-.011c-.872-.186-1.749-.368-2.63-.552C45.118,77.33,37.874,75.821,31.51,72.5A40.494,40.494,0,0,1,17.786,61.437a29.5,29.5,0,0,1-5.717-16.2c-.162-2.4-.164-4.962-.165-7.438,0-9.041-.007-18.391-7.355-24.587a.5.5,0,1,1,.644-.764C12.9,18.943,12.9,28.529,12.9,37.8c0,2.572,0,5,.163,7.37a28.52,28.52,0,0,0,5.514,15.662A39.5,39.5,0,0,0,31.973,71.614c6.241,3.256,13.417,4.751,20.355,6.2q1.324.274,2.636.552a.5.5,0,0,1-.1.99Z" style="fill:#40484b"/><path d="M70.726,63.5a.5.5,0,0,1-.318-.887,41.62,41.62,0,0,1,22.133-9.124.518.518,0,0,1,.542.454.5.5,0,0,1-.454.542,40.576,40.576,0,0,0-21.586,8.9A.5.5,0,0,1,70.726,63.5Z" style="fill:#40484b"/><path d="M66.447,67.457a.5.5,0,0,1-.332-.874c4.005-3.555,9.764-9.155,12.816-13.242.87-1.166,1.727-2.337,2.584-3.506,4.549-6.209,9.254-12.63,15.535-17.631a55.627,55.627,0,0,1,24.831-11.683.507.507,0,0,1,.587.395.5.5,0,0,1-.4.587,54.63,54.63,0,0,0-24.4,11.484c-6.177,4.917-10.634,11-15.352,17.439q-1.285,1.758-2.59,3.512c-3.095,4.149-8.912,9.807-12.952,13.393A.5.5,0,0,1,66.447,67.457Z" style="fill:#40484b"/><path d="M95.949,36.487a4.06,4.06,0,1,1,4.707-3.224,4.06,4.06,0,0,1-4.707,3.224" style="fill:#3598db"/><path d="M120.352,25.2a5.234,5.234,0,0,1-3.285-6.6A5.161,5.161,0,0,1,123.6,15.28a5.233,5.233,0,0,1,3.284,6.6,5.161,5.161,0,0,1-6.535,3.317" style="fill:#d4d4d4"/><path d="M24.928,73.088a4.179,4.179,0,1,1,4.845-3.319,4.178,4.178,0,0,1-4.845,3.319" style="fill:#3598db"/><path d="M21.631,60.88A1.412,1.412,0,1,1,22.963,59.4a1.4,1.4,0,0,1-1.332,1.476" style="fill:#d4d4d4"/><path d="M82.378,48.18a3.343,3.343,0,1,1,3.876-2.655,3.343,3.343,0,0,1-3.876,2.655" style="fill:#d4d4d4"/><path d="M100.457,27.018a4.02,4.02,0,1,1,4.121-3.874,4,4,0,0,1-4.121,3.874" style="fill:#d4d4d4"/><path d="M87.325,62.751a2.834,2.834,0,0,1-2.051-3.428,2.8,2.8,0,0,1,3.395-2.07,2.834,2.834,0,0,1,2.051,3.428,2.8,2.8,0,0,1-3.395,2.07" style="fill:#d4d4d4"/><path d="M29.647,37.74a5.013,5.013,0,0,1-.307-7.035,4.9,4.9,0,0,1,6.968-.311,5.015,5.015,0,0,1,.307,7.036,4.9,4.9,0,0,1-6.968.31" style="fill:#3598db"/><path d="M11.1,67.813a4.7,4.7,0,0,1-3.21-1.261,4.835,4.835,0,0,1-.3-6.778,4.729,4.729,0,0,1,6.725-.3,4.835,4.835,0,0,1,.3,6.777,4.713,4.713,0,0,1-3.3,1.556C11.239,67.812,11.168,67.813,11.1,67.813Zm.008-8.6-.168,0a3.719,3.719,0,0,0-2.606,1.228,3.833,3.833,0,0,0,.235,5.371,3.727,3.727,0,0,0,5.306-.236,3.833,3.833,0,0,0-.235-5.371A3.706,3.706,0,0,0,11.106,59.215Z" style="fill:#d4d4d4"/><path d="M39.9,53.764a4.327,4.327,0,0,1-2.951-1.16h0a4.445,4.445,0,0,1-.272-6.232,4.347,4.347,0,0,1,6.184-.275,4.445,4.445,0,0,1,.272,6.232A4.335,4.335,0,0,1,40.1,53.76C40.032,53.763,39.968,53.764,39.9,53.764Zm.008-7.826c-.05,0-.1,0-.15,0a3.338,3.338,0,0,0-2.341,1.1,3.442,3.442,0,0,0,.21,4.825h0a3.347,3.347,0,0,0,4.765-.212,3.444,3.444,0,0,0-.21-4.826A3.334,3.334,0,0,0,39.911,45.938Z" style="fill:#d4d4d4"/><path d="M3.861,15.869a4.063,4.063,0,0,1-2.882-4.95,4.017,4.017,0,0,1,4.9-2.909,4.063,4.063,0,0,1,2.882,4.95,4.017,4.017,0,0,1-4.9,2.909" style="fill:#d4d4d4"/><path d="M12.4,26.018a2.8,2.8,0,0,0-3.413,2.026,2.829,2.829,0,0,0,2.007,3.445A2.8,2.8,0,0,0,14.4,29.464,2.829,2.829,0,0,0,12.4,26.018" style="fill:#d4d4d4"/><path d="M94.782,57.327a4.128,4.128,0,1,1,4.56-3.59,4.121,4.121,0,0,1-4.56,3.59" style="fill:#d4d4d4"/><path d="M27.527,43.54A2.086,2.086,0,0,1,26.048,41a2.062,2.062,0,0,1,2.516-1.493,2.086,2.086,0,0,1,1.479,2.541,2.062,2.062,0,0,1-2.516,1.493" style="fill:#d4d4d4"/><path d="M101.6,47.976a1.151,1.151,0,1,1,1.252-1.024,1.147,1.147,0,0,1-1.252,1.024" style="fill:#3598db"/><path d="M43.434,67.7a1.871,1.871,0,1,1,2.17-1.486,1.87,1.87,0,0,1-2.17,1.486" style="fill:#d4d4d4"/><path d="M4.6,24.363a2,2,0,1,1,2.237-1.711A2,2,0,0,1,4.6,24.363" style="fill:#d4d4d4"/><path d="M114.5,30.869a2.436,2.436,0,1,1,2.3-2.545,2.423,2.423,0,0,1-2.3,2.545" style="fill:#d4d4d4"/><path d="M54.271,63.366,79.829,73.589l-6.5,2.372a2,2,0,0,0-.78,3.241l9.194,9.871-5.274,4.9-9.318-10.03A2,2,0,0,0,65.68,83.3a1.874,1.874,0,0,0-.258.017,2,2,0,0,0-1.506,1.042L60.17,91.386l-5.9-28.02m-.093-2.043a1.93,1.93,0,0,0-1.891,2.328l5.965,28.334a1.93,1.93,0,0,0,3.593.511L65.68,85.3l9.366,10.081a1.933,1.933,0,0,0,2.728.1L83.137,90.5a1.93,1.93,0,0,0,.1-2.729L74.009,77.84l6.677-2.434a1.93,1.93,0,0,0,.056-3.606L54.893,61.461a1.914,1.914,0,0,0-.715-.138Z" style="fill:#40484b"/></svg>