<?xml version="1.0" encoding="utf-8"?>
<!-- Generator: Adobe Illustrator 24.0.1, SVG Export Plug-In . SVG Version: 6.00 Build 0)  -->
<svg version="1.2" baseProfile="tiny" xmlns="http://www.w3.org/2000/svg" xmlns:xlink="http://www.w3.org/1999/xlink" x="0px"
	 y="0px" viewBox="0 0 128 96" xml:space="preserve">
<g id="Error_4xx">
</g>
<g id="Error_5xx">
</g>
<g id="Not_Found">
</g>
<g id="Empty_Folder_-_First_Use">
</g>
<g id="Empty_Folder_-_Tasks_Complete">
	<g id="Task_ICO_1_" transform="translate(13.129 33.496)">
		<g id="Group_707_1_" transform="translate(30.871 22.504)">
			<g id="Group_706_1_">
				<path id="Path_476_1_" fill="#40484B" d="M7.208,18.166c0.041,0.053,0.089,0.101,0.141,0.144l0.013,0.008
					c0.044,0.035,0.091,0.066,0.141,0.092l0.014,0.005c0.047,0.022,0.095,0.04,0.145,0.054c0.022,0.007,0.043,0.018,0.066,0.023
					c0.056,0.012,0.114,0.018,0.171,0.02c0.015,0,0.03,0.005,0.045,0.005l0,0c0.074-0.001,0.147-0.01,0.219-0.027l0.032-0.008
					c0.069-0.018,0.136-0.044,0.2-0.077l0.037-0.021c0.019-0.011,0.038-0.02,0.057-0.033c0.03-0.022,0.059-0.046,0.086-0.072
					c0.013-0.011,0.028-0.021,0.04-0.033c0.052-0.052,0.097-0.109,0.134-0.172c0-0.005,0.007-0.008,0.009-0.012l2.647-4.6
					c0.233-0.409,0.09-0.93-0.319-1.163c-0.016-0.009-0.032-0.018-0.049-0.026c-0.444-0.233-0.993-0.08-1.253,0.349l-1.945,3.381
					l-0.744-0.976c-0.31-0.395-0.874-0.482-1.289-0.2c-0.391,0.257-0.5,0.782-0.244,1.173c0.011,0.017,0.023,0.034,0.036,0.05
					l1.6,2.1L7.208,18.166z"/>
				<path id="Path_477_1_" fill="#40484B" d="M7.208,26.95c0.041,0.053,0.089,0.101,0.141,0.144l0.013,0.008
					c0.044,0.035,0.091,0.066,0.141,0.092l0.014,0.005c0.047,0.022,0.095,0.04,0.145,0.054c0.022,0.007,0.043,0.018,0.066,0.023
					c0.056,0.012,0.114,0.018,0.171,0.02c0.015,0,0.03,0.005,0.045,0.005l0,0c0.074-0.001,0.147-0.01,0.219-0.027l0.032-0.008
					c0.069-0.018,0.136-0.044,0.2-0.077l0.037-0.021c0.019-0.011,0.038-0.02,0.057-0.033c0.03-0.022,0.059-0.046,0.086-0.072
					c0.013-0.011,0.028-0.021,0.04-0.033c0.052-0.052,0.097-0.109,0.134-0.172c0-0.005,0.007-0.008,0.009-0.012l2.647-4.6
					c0.233-0.409,0.09-0.93-0.319-1.163c-0.016-0.009-0.032-0.018-0.049-0.026c-0.444-0.233-0.993-0.08-1.253,0.349l-1.945,3.381
					l-0.744-0.976c-0.31-0.395-0.874-0.482-1.289-0.2c-0.391,0.257-0.5,0.783-0.242,1.174c0.011,0.017,0.022,0.033,0.034,0.049
					l1.6,2.1L7.208,26.95z"/>
				<path id="Path_478_1_" fill="#40484B" d="M7.208,34.728c0.041,0.053,0.089,0.101,0.141,0.144l0.013,0.008
					c0.044,0.035,0.091,0.066,0.141,0.092l0.014,0.005c0.047,0.022,0.095,0.04,0.145,0.054c0.022,0.007,0.043,0.018,0.066,0.023
					c0.056,0.012,0.114,0.018,0.171,0.02c0.015,0,0.03,0.005,0.045,0.005l0,0c0.074-0.001,0.147-0.01,0.219-0.027l0.032-0.008
					c0.069-0.018,0.136-0.044,0.2-0.077l0.037-0.021c0.019-0.011,0.038-0.02,0.057-0.033c0.03-0.022,0.059-0.046,0.086-0.072
					c0.013-0.011,0.028-0.021,0.04-0.033c0.052-0.051,0.097-0.109,0.134-0.172c0,0,0.007-0.008,0.009-0.012l2.647-4.6
					c0.233-0.409,0.09-0.93-0.319-1.163c-0.016-0.009-0.032-0.018-0.049-0.026c-0.444-0.233-0.993-0.08-1.253,0.349l-1.945,3.383
					l-0.744-0.976c-0.31-0.395-0.874-0.482-1.289-0.2c-0.391,0.257-0.5,0.782-0.244,1.173c0.011,0.017,0.023,0.034,0.036,0.05
					l1.6,2.1L7.208,34.728z"/>
				<path id="Path_479_1_" fill="#40484B" d="M25.496,16.59c0,0.484,0.1,0.876,0.215,0.876h3.932c0.119,0,0.215-0.392,0.215-0.876
					s-0.1-0.876-0.215-0.876h-3.932C25.592,15.714,25.496,16.106,25.496,16.59z"/>
				<path id="Path_480_1_" fill="#40484B" d="M13.326,16.59c0,0.484,0.1,0.876,0.215,0.876h3.932c0.118,0,0.215-0.392,0.215-0.876
					s-0.1-0.876-0.215-0.876h-3.932C13.422,15.714,13.326,16.106,13.326,16.59z"/>
				<path id="Path_481_1_" fill="#40484B" d="M17.473,23.656h-3.932c-0.119,0-0.215,0.392-0.215,0.875s0.1,0.876,0.215,0.876h3.932
					c0.118,0,0.215-0.392,0.215-0.876S17.592,23.656,17.473,23.656z"/>
				<path id="Path_482_1_" fill="#40484B" d="M17.473,31.596h-3.932c-0.119,0-0.215,0.392-0.215,0.876
					c0,0.484,0.1,0.875,0.215,0.875h3.932c0.118,0,0.215-0.392,0.215-0.875C17.688,31.989,17.592,31.596,17.473,31.596z"/>
				<path id="Path_483_1_" fill="#40484B" d="M19.677,16.59c0,0.484,0.1,0.876,0.215,0.876h3.932c0.118,0,0.215-0.392,0.215-0.876
					s-0.1-0.876-0.215-0.876h-3.933C19.772,15.714,19.677,16.106,19.677,16.59z"/>
				<path id="Path_484_1_" fill="#40484B" d="M19.677,24.257c0,0.484,0.1,0.876,0.215,0.876h3.932c0.118,0,0.215-0.392,0.215-0.876
					s-0.1-0.875-0.215-0.875h-3.933C19.772,23.382,19.677,23.774,19.677,24.257z"/>
				<path id="Path_485_1_" fill="#40484B" d="M22.055,38.135H6.943c-1.491,0.039-2.731-1.137-2.77-2.628V5.38
					c0.039-1.491,1.279-2.667,2.77-2.628h15.036v7.49c0.039,1.491,1.279,2.667,2.77,2.628h7.9v10.827h1.847v-11.7
					c0-0.057-0.006-0.113-0.018-0.169c-0.006-0.028-0.017-0.054-0.025-0.081c-0.008-0.028-0.017-0.056-0.027-0.083
					c-0.015-0.032-0.033-0.063-0.052-0.093c-0.011-0.019-0.02-0.039-0.033-0.057c-0.035-0.049-0.074-0.095-0.118-0.136L23.555,1.258
					c-0.043-0.041-0.091-0.078-0.141-0.11c-0.022-0.013-0.046-0.023-0.069-0.035s-0.059-0.032-0.09-0.045
					c-0.03-0.011-0.061-0.02-0.092-0.027c-0.026-0.008-0.052-0.017-0.08-0.023c-0.06-0.011-0.12-0.017-0.181-0.017H6.943
					C4.46,0.94,2.396,2.898,2.326,5.38v30.128c0.07,2.482,2.134,4.441,4.617,4.379h15.112V38.135z M23.824,3.991l7.514,7.128h-6.589
					c-0.497,0.013-0.91-0.379-0.923-0.876L23.824,3.991z"/>
			</g>
		</g>
		<g id="Group_709_1_" transform="translate(0 0)">
			<path id="Path_487_1_" fill="#72BF44" d="M73.379,45.657L61.185,57.834L56.742,53.4c-0.796-0.716-2.022-0.65-2.738,0.146
				c-0.66,0.735-0.663,1.848-0.005,2.586l5.816,5.805c0.757,0.756,1.984,0.756,2.74,0l13.561-13.544
				c0.795-0.717,0.859-1.943,0.142-2.738c-0.717-0.795-1.943-0.859-2.738-0.142c-0.05,0.045-0.098,0.093-0.143,0.144H73.379z"/>
		</g>
	</g>
	<g id="organika_5_">
		<g id="vetve_4_">
			<path fill="#40484B" d="M5.843,65.187c-0.227,0-0.459-0.014-0.699-0.043c-0.274-0.032-0.471-0.281-0.438-0.555
				c0.031-0.275,0.286-0.476,0.555-0.438c3.89,0.458,5.633-3.969,6.205-5.894c0.922-3.103,1.392-6.392,1.846-9.571l0.211-1.471
				c0.863-5.896,1.997-12.073,5.481-17.087c3.016-4.342,7.677-7.103,13.853-8.206c1.814-0.324,3.233-0.499,5.06-0.623
				c0.271-0.018,0.513,0.189,0.533,0.465c0.019,0.275-0.189,0.514-0.465,0.533c-1.788,0.121-3.176,0.292-4.952,0.609
				c-5.904,1.055-10.349,3.677-13.208,7.792c-3.359,4.836-4.466,10.883-5.312,16.661l-0.212,1.468
				c-0.459,3.216-0.934,6.541-1.876,9.715C11.814,60.599,9.985,65.187,5.843,65.187z"/>
			<path fill="#40484B" d="M45.294,21.892c-0.261,0-0.48-0.203-0.498-0.467c-0.019-0.275,0.19-0.514,0.466-0.532
				c1.817-0.121,3.165-0.253,5.081-0.604c5.872-1.075,10.808-4.053,14.271-8.613c0.167-0.22,0.48-0.262,0.701-0.095
				c0.22,0.167,0.263,0.48,0.096,0.701c-3.618,4.762-8.767,7.871-14.889,8.991c-1.963,0.359-3.34,0.494-5.194,0.618
				C45.316,21.891,45.305,21.892,45.294,21.892z"/>
			<path fill="#40484B" d="M16.077,61.993c-0.076,0-0.152-0.017-0.224-0.053c-0.247-0.124-0.347-0.425-0.224-0.671
				c2.181-4.351,4.673-8.359,7.406-11.914c4.904-6.375,11.33-11.626,19.099-15.609c7.647-3.922,15.809-6.457,23.701-8.909
				c0.269-0.079,0.545,0.066,0.626,0.329c0.082,0.264-0.065,0.544-0.329,0.626c-7.853,2.439-15.972,4.961-23.541,8.844
				c-7.637,3.916-13.949,9.073-18.763,15.329c-2.695,3.505-5.153,7.459-7.305,11.752C16.436,61.893,16.259,61.993,16.077,61.993z"/>
			<path fill="#40484B" d="M94.131,49.089c-0.163,0-0.324-0.08-0.42-0.229c-3.8-5.878-9.521-10.645-16.11-13.422
				c-3.37-1.421-6.854-2.309-10.354-2.64c-3.357-0.315-6.857-0.103-11.02,0.673c-1.845,0.344-3.711,0.768-5.516,1.178
				c-2.761,0.627-5.616,1.276-8.483,1.661c-0.271,0.03-0.525-0.155-0.562-0.429c-0.037-0.273,0.155-0.525,0.429-0.562
				c2.822-0.379,5.655-1.022,8.395-1.645c1.814-0.412,3.69-0.838,5.554-1.187c4.197-0.782,7.894-1.008,11.297-0.685
				c3.602,0.34,7.185,1.253,10.648,2.713c6.772,2.855,12.654,7.756,16.562,13.801c0.149,0.232,0.083,0.542-0.148,0.691
				C94.319,49.063,94.225,49.089,94.131,49.089z"/>
			<path fill="#40484B" d="M1.83,80.5c-0.189,0-0.37-0.108-0.454-0.291c-0.115-0.251-0.006-0.548,0.245-0.663
				c5.071-2.33,8.044-7.341,10.653-12.274c2.505-4.731,4.854-8.947,8.254-12.638c3.181-3.45,6.859-6.302,10.935-8.475
				c8.786-4.681,18.99-5.971,28.736-3.631c0.269,0.064,0.434,0.334,0.369,0.603c-0.065,0.268-0.324,0.433-0.604,0.37
				c-9.507-2.284-19.463-1.027-28.031,3.542c-3.976,2.119-7.565,4.901-10.67,8.27c-3.318,3.603-5.634,7.76-8.104,12.428
				c-2.69,5.085-5.766,10.255-11.12,12.715C1.971,80.485,1.9,80.5,1.83,80.5z"/>
			<path fill="#40484B" d="M114.701,70.398c-0.012,0-0.023,0-0.034-0.001c-9.176-0.619-18.429-4.894-24.751-11.435
				c-2.926-3.027-5.131-6.69-7.264-10.233c-2.659-4.417-5.408-8.984-9.539-12.221c-3.554-2.785-7.74-4.112-11.782-3.731
				c-0.265,0.025-0.519-0.177-0.545-0.451c-0.025-0.275,0.177-0.519,0.451-0.545c4.305-0.404,8.736,0.996,12.493,3.94
				c4.275,3.351,7.073,7.998,9.779,12.493c2.104,3.495,4.279,7.108,7.125,10.053c6.155,6.368,15.164,10.529,24.099,11.132
				c0.276,0.019,0.484,0.257,0.466,0.532C115.181,70.196,114.962,70.398,114.701,70.398z"/>
			<path fill="#40484B" d="M120.351,53.394c-0.146,0-0.291-0.063-0.39-0.187c-4.062-5.06-8.908-8.712-15.25-11.496
				c-5.12-2.247-10.413-3.032-16.016-3.864c-1.021-0.152-2.043-0.303-3.065-0.465c-3.372-0.531-6.815-1.483-10.834-2.996
				c-0.259-0.097-0.39-0.385-0.292-0.644c0.097-0.258,0.388-0.39,0.644-0.292c3.954,1.488,7.335,2.423,10.639,2.944
				c1.02,0.161,2.038,0.312,3.056,0.463c5.422,0.805,11.027,1.637,16.271,3.937c6.495,2.851,11.46,6.596,15.627,11.785
				c0.173,0.216,0.139,0.53-0.076,0.703C120.572,53.357,120.462,53.394,120.351,53.394z"/>
			<path fill="#40484B" d="M16.263,37.351c-0.017,0-0.033-0.001-0.049-0.002c-0.275-0.026-0.477-0.271-0.45-0.546
				c0.485-5.009,1.022-9.505,2.675-13.798c1.391-3.608,3.261-6.554,5.56-8.757c2.365-2.269,5.434-3.76,9.118-4.435
				c1.388-0.254,2.875-0.423,4.313-0.587c5.192-0.592,10.562-1.204,13.614-5.791c0.152-0.231,0.463-0.293,0.693-0.139
				c0.229,0.153,0.292,0.463,0.139,0.693c-3.311,4.974-8.914,5.612-14.333,6.23c-1.487,0.169-2.893,0.33-4.247,0.577
				c-3.488,0.639-6.384,2.042-8.606,4.173c-2.191,2.101-3.98,4.925-5.317,8.395c-1.607,4.175-2.135,8.6-2.612,13.535
				C16.735,37.157,16.517,37.351,16.263,37.351z"/>
		</g>
		<g id="bobule_4_">
			<path fill="#D4D4D4" d="M57.411,46.262c-1.992-0.386-3.298-2.329-2.916-4.341c0.382-2.012,2.307-3.33,4.299-2.944
				c1.992,0.386,3.298,2.329,2.916,4.341C61.328,45.33,59.403,46.648,57.411,46.262"/>
			<path fill="#D4D4D4" d="M92.147,34.718c-2.476-0.828-3.819-3.526-3-6.026c0.82-2.501,3.492-3.857,5.968-3.029
				c2.476,0.828,3.819,3.526,3,6.027C97.295,34.19,94.623,35.546,92.147,34.718"/>
			<path fill="#D4D4D4" d="M17.012,66.247c-2.05-0.397-3.395-2.397-3.001-4.468c0.393-2.07,2.375-3.427,4.425-3.03
				c2.05,0.397,3.395,2.397,3.001,4.468C21.043,65.288,19.062,66.644,17.012,66.247"/>
			<path fill="#D4D4D4" d="M111.816,51.97c-0.705,0.033-1.302-0.517-1.335-1.228c-0.033-0.711,0.512-1.315,1.217-1.348
				c0.705-0.033,1.302,0.517,1.334,1.229C113.065,51.334,112.521,51.937,111.816,51.97"/>
			<path fill="#D4D4D4" d="M40.988,37.96c-1.641-0.318-2.716-1.918-2.401-3.575c0.315-1.656,1.9-2.741,3.54-2.424
				c1.64,0.318,2.715,1.917,2.401,3.574C44.213,37.192,42.629,38.278,40.988,37.96"/>
			<path fill="#72BF44" d="M111.734,41.509c-2.007-0.072-3.575-1.773-3.504-3.8c0.072-2.026,1.756-3.61,3.763-3.538
				c2.007,0.072,3.575,1.773,3.504,3.8C115.425,39.998,113.741,41.581,111.734,41.509"/>
			<path fill="#D4D4D4" d="M90.456,51.953c-2.341-2.164-2.501-5.834-0.358-8.197c2.143-2.364,5.778-2.526,8.118-0.362
				c2.341,2.164,2.501,5.834,0.358,8.197C96.431,53.955,92.797,54.117,90.456,51.953"/>
			<path fill="#D4D4D4" d="M66.904,28.401c-2.086-0.52-3.359-2.649-2.844-4.755s2.623-3.392,4.709-2.872s3.359,2.649,2.844,4.755
				C71.098,27.635,68.989,28.921,66.904,28.401"/>
			<path fill="#D4D4D4" d="M2.962,55.087c-1.834-1.696-1.96-4.572-0.281-6.425c1.679-1.852,4.528-1.979,6.363-0.283
				c1.834,1.696,1.96,4.572,0.281,6.425C7.646,56.656,4.797,56.783,2.962,55.087"/>
			<path fill="#D4D4D4" d="M83.917,34.205c-0.38,0-0.761-0.062-1.131-0.186c-1.874-0.626-2.895-2.673-2.275-4.564
				c0.303-0.921,0.943-1.667,1.805-2.1c0.852-0.429,1.821-0.499,2.725-0.195c1.875,0.626,2.896,2.673,2.276,4.563
				c-0.303,0.921-0.943,1.667-1.805,2.1C85.007,34.077,84.463,34.205,83.917,34.205z M83.91,27.976
				c-0.394,0-0.784,0.092-1.146,0.274c-0.621,0.312-1.084,0.851-1.302,1.518c-0.449,1.37,0.287,2.852,1.641,3.304l0,0
				c0.65,0.217,1.346,0.167,1.96-0.141c0.622-0.312,1.085-0.851,1.303-1.518c0.449-1.369-0.287-2.851-1.642-3.304
				C84.457,28.02,84.182,27.976,83.91,27.976z"/>
			<path fill="#D4D4D4" d="M120.003,75.76c-1.456,0-2.839-0.542-3.919-1.54l0,0c-2.359-2.181-2.522-5.895-0.361-8.277
				c1.048-1.156,2.479-1.831,4.031-1.899c1.564-0.07,3.035,0.478,4.18,1.535c2.358,2.182,2.521,5.894,0.361,8.276
				c-1.048,1.156-2.48,1.831-4.032,1.899C120.175,75.758,120.088,75.76,120.003,75.76z M120.012,65.038
				c-0.071,0-0.143,0.001-0.215,0.004c-1.283,0.057-2.467,0.615-3.335,1.572c-1.793,1.979-1.658,5.061,0.3,6.871h0.001
				c0.947,0.875,2.163,1.329,3.455,1.27c1.283-0.057,2.468-0.615,3.336-1.572c1.793-1.978,1.658-5.06-0.301-6.87
				C122.36,65.486,121.216,65.038,120.012,65.038z"/>
			<path fill="#D4D4D4" d="M122.957,59.38c-1.012,0-1.974-0.377-2.724-1.071l0,0c-1.641-1.516-1.754-4.096-0.252-5.751
				c0.729-0.804,1.724-1.273,2.804-1.321c1.065-0.034,2.11,0.33,2.905,1.066c1.641,1.517,1.753,4.097,0.251,5.752
				c-0.729,0.804-1.724,1.273-2.803,1.321C123.078,59.378,123.017,59.38,122.957,59.38z M122.965,52.232
				c-0.046,0-0.091,0.001-0.137,0.003c-0.811,0.036-1.559,0.389-2.107,0.994c-1.135,1.25-1.05,3.199,0.189,4.345h0.001
				c0.598,0.554,1.386,0.841,2.182,0.803c0.811-0.036,1.559-0.389,2.107-0.994c1.135-1.251,1.05-3.2-0.189-4.346
				C124.448,52.516,123.725,52.232,122.965,52.232z"/>
			<path fill="#D4D4D4" d="M16.473,38.79c-1.963-0.514-3.141-2.538-2.631-4.52c0.51-1.982,2.514-3.172,4.477-2.657
				c1.963,0.514,3.141,2.538,2.631,4.52C20.44,38.115,18.435,39.305,16.473,38.79"/>
			<path fill="#D4D4D4" d="M41.628,26.054c-0.352,0-0.706-0.045-1.056-0.137l0,0c-2.225-0.583-3.565-2.884-2.988-5.129
				c0.281-1.094,0.97-2.01,1.938-2.579c0.958-0.563,2.077-0.717,3.149-0.437c2.225,0.583,3.565,2.884,2.988,5.128
				c-0.281,1.093-0.969,2.009-1.937,2.579C43.077,25.859,42.357,26.054,41.628,26.054z M40.826,24.95
				c0.812,0.213,1.663,0.096,2.391-0.332c0.737-0.434,1.261-1.132,1.475-1.966c0.44-1.713-0.579-3.468-2.273-3.912
				c-0.814-0.215-1.663-0.096-2.39,0.331c-0.736,0.434-1.261,1.132-1.476,1.966C38.112,22.75,39.131,24.506,40.826,24.95
				L40.826,24.95z"/>
			<path fill="#D4D4D4" d="M13.644,19.79c-1.366-0.358-2.762,0.47-3.116,1.85c-0.355,1.379,0.466,2.788,1.832,3.146
				c1.366,0.358,2.761-0.47,3.116-1.849C15.83,21.557,15.01,20.148,13.644,19.79"/>
			<path fill="#D4D4D4" d="M67.36,12.741c-2.659-0.333-4.549-2.779-4.22-5.465c0.329-2.685,2.752-4.593,5.412-4.261
				c2.659,0.333,4.549,2.779,4.22,5.465C72.443,11.166,70.02,13.074,67.36,12.741"/>
			<path fill="#D4D4D4" d="M54.517,7.335c-1.857,1.102-4.248,0.476-5.34-1.4c-1.092-1.875-0.471-4.289,1.386-5.391
				c1.858-1.103,4.248-0.476,5.34,1.4C56.994,3.819,56.374,6.233,54.517,7.335"/>
			<path fill="#72BF44" d="M34.095,8.067c-1.007-0.264-1.612-1.303-1.351-2.32s1.29-1.628,2.298-1.364
				c1.007,0.264,1.612,1.303,1.351,2.32C36.131,7.72,35.103,8.331,34.095,8.067"/>
			<path fill="#D4D4D4" d="M49.482,49.967c-1.521-0.161-2.625-1.537-2.466-3.073c0.16-1.536,1.522-2.65,3.044-2.489
				c1.521,0.161,2.625,1.537,2.465,3.073C52.365,49.013,51.003,50.128,49.482,49.967"/>
			<path fill="#72BF44" d="M19.31,49.582c-0.918-0.178-1.52-1.074-1.344-2.001c0.176-0.927,1.063-1.535,1.982-1.357
				c0.918,0.178,1.52,1.073,1.344,2.001C21.115,49.152,20.228,49.759,19.31,49.582"/>
			<path fill="#D4D4D4" d="M60.251,12.835c-0.992-0.138-1.685-1.062-1.548-2.063c0.137-1.002,1.052-1.701,2.044-1.563
				c0.992,0.138,1.684,1.062,1.547,2.064C62.157,12.274,61.243,12.974,60.251,12.835"/>
			<path fill="#D4D4D4" d="M110.582,75.926c-1.216,0.057-2.247-0.892-2.303-2.119c-0.056-1.228,0.884-2.269,2.099-2.326
				c1.216-0.057,2.246,0.892,2.302,2.12C112.737,74.828,111.798,75.869,110.582,75.926"/>
		</g>
	</g>
</g>
<g id="Not_Configured">
</g>
<g id="Not_Configured_2">
</g>
<g id="Not_Configured_v3">
</g>
<g id="Wait_for_Select">
</g>
<g id="Empty_Workflow">
</g>
<g id="No_data_for_chart_x29_">
</g>
<g id="no_data_for_chart_2">
</g>
<g id="Waiting_for_Select_2">
</g>
<g id="No_preview">
</g>
<g id="Waiting_for_Select_3">
</g>
<g id="_x5F_labels_x5F_">
</g>
</svg>
